<svg xmlns="http://www.w3.org/2000/svg" width="1920" height="1080" viewBox="0 0 1920 1080">
  <!-- Background -->
  <rect width="100%" height="100%" fill="#1e40af" />

  <!-- Dynamic Waves -->
  <path d="M0,300 Q480,150 960,300 T1920,300 L1920,1080 L0,1080 Z" fill="#60a5fa" opacity="0.8" />
  <path d="M0,800 Q640,650 1280,800 T2560,800 L2560,1080 L0,1080 Z" fill="#3b82f6" opacity="0.6" />

  <!-- Letters -->
  <text x="150" y="200" font-family="Arial, sans-serif" font-size="150" fill="#bfdbfe" transform="rotate(-10 150,200)">W</text>
  <text x="1300" y="300" font-family="Arial, sans-serif" font-size="180" fill="#93c5fd" transform="rotate(5 1300,300)">O</text>
  <text x="600" y="500" font-family="Arial, sans-serif" font-size="200" fill="#60a5fa" transform="rotate(-15 600,500)">R</text>
  <text x="1600" y="550" font-family="Arial, sans-serif" font-size="160" fill="#2563eb" transform="rotate(10 1600,550)">D</text>
  <text x="900" y="850" font-family="Arial, sans-serif" font-size="240" fill="#3b82f6" transform="rotate(-25 900,850)">S</text>
  <text x="1200" y="1000" font-family="Arial, sans-serif" font-size="140" fill="#1d4ed8" transform="rotate(15 1200,1000)">G</text>
  <text x="200" y="950" font-family="Arial, sans-serif" font-size="120" fill="#93c5fd" transform="rotate(-5 200,950)">A</text>
  <text x="1750" y="700" font-family="Arial, sans-serif" font-size="150" fill="#1e40af" transform="rotate(20 1750,700)">M</text>
  <text x="1000" y="500" font-family="Arial, sans-serif" font-size="140" fill="#bfdbfe" transform="rotate(-10 1000,500)">E</text>

  <!-- Border -->
  <rect x="20" y="20" width="1880" height="1040" fill="none" stroke="#2563eb" stroke-width="20" rx="50" ry="50" />
</svg>